<svg id="anchor" data-name="Layer 1" viewBox="0 0 386.85 386.85">
  <defs>
    <clipPath id="clip-path" transform="translate(-234.68 -243.87)">
      <rect x="277.1" y="328.84" width="151" height="286.47" style="fill: none" />
    </clipPath>
    <clipPath id="clip-path-2" transform="translate(-234.68 -243.87)">
      <rect x="428.11" y="328.84" width="151" height="286.47" style="fill: none" />
    </clipPath>
  </defs>
  <g>
    <g>
      <g id="_Mirror_Repeat_">
        <g style="clip-path: url(#clip-path)">
          <path
            d="M428.11,615.31c-13-37.38-103.18-30-137.16-140.35-4.07,1.83-13.85,4.66-13.85,4.66l16.26-69.83,43.78,53.48-15.73,2.66c-1.9,26.81,90.73,138.56,90,22.57-.15-24.83-.45-116.17-.45-116.17H375.54L372,347.23l37.91-2.83-1.14-10.5,3.25-3.08,18.38-2"
            transform="translate(-234.68 -243.87)" />
        </g>
      </g>
      <g id="_Mirror_Repeat_2">
        <g style="clip-path: url(#clip-path-2)">
          <path
            d="M428.11,615.31c13-37.38,103.17-30,137.15-140.35,4.08,1.83,13.85,4.66,13.85,4.66l-16.26-69.83-43.78,53.48,15.73,2.66c1.91,26.81-90.73,138.56-90,22.57.15-24.83.44-116.17.44-116.17h35.45l3.54-25.1L446.3,344.4l1.14-10.5-3.25-3.08-18.38-2"
            transform="translate(-234.68 -243.87)" />
        </g>
      </g>
    </g>
    <path
      d="M428.27,258.31a36.26,36.26,0,1,0,36.25,36.26A36.25,36.25,0,0,0,428.27,258.31Zm0,53A16.78,16.78,0,1,1,445,294.57,16.77,16.77,0,0,1,428.27,311.34Z"
      transform="translate(-234.68 -243.87)" />
  </g>
  <rect width="386.85" height="386.85" style="fill: none" />
</svg>