<?xml version="1.0" encoding="UTF-8" standalone="no"?>
<!-- Created with Inkscape (http://www.inkscape.org/) -->

<svg
   width="1080"
   height="1350"
   viewBox="0 0 1080 1350"
   version="1.1"
   id="svg1"
   inkscape:version="1.4 (e7c3feb1, 2024-10-09)"
   sodipodi:docname="cavalinho.svg"
   inkscape:export-filename="cavalinho.png"
   inkscape:export-xdpi="96"
   inkscape:export-ydpi="96"
   xmlns:inkscape="http://www.inkscape.org/namespaces/inkscape"
   xmlns:sodipodi="http://sodipodi.sourceforge.net/DTD/sodipodi-0.dtd"
   xmlns:xlink="http://www.w3.org/1999/xlink"
   xmlns="http://www.w3.org/2000/svg"
   xmlns:svg="http://www.w3.org/2000/svg">
  <sodipodi:namedview
     id="namedview1"
     pagecolor="#505050"
     bordercolor="#eeeeee"
     borderopacity="1"
     inkscape:showpageshadow="0"
     inkscape:pageopacity="0"
     inkscape:pagecheckerboard="0"
     inkscape:deskcolor="#505050"
     inkscape:document-units="px"
     inkscape:zoom="0.29112"
     inkscape:cx="556.48"
     inkscape:cy="731.67"
     inkscape:window-width="2008"
     inkscape:window-height="1257"
     inkscape:window-x="0"
     inkscape:window-y="44"
     inkscape:window-maximized="1"
     inkscape:current-layer="layer1" />
  <defs
     id="defs1">
    <linearGradient
       id="linearGradient35"
       inkscape:collect="always">
      <stop
         style="stop-color:#474747;stop-opacity:0.22377;"
         offset="0"
         id="stop35" />
      <stop
         style="stop-color:#474747;stop-opacity:0;"
         offset="1"
         id="stop36" />
    </linearGradient>
    <inkscape:path-effect
       effect="fillet_chamfer"
       id="path-effect34"
       is_visible="true"
       lpeversion="1"
       nodesatellites_param="F,0,0,1,0,0,0,1 @ F,0,0,1,0,0,0,1 @ F,0,0,1,0,0,0,1 @ F,0,0,1,0,0,0,1 @ F,0,0,1,0,0,0,1 @ F,0,0,1,0,0,0,1 @ F,0,0,1,0,0,0,1 @ F,0,0,1,0,0,0,1 @ F,0,0,1,0,0,0,1"
       radius="0"
       unit="px"
       method="auto"
       mode="F"
       chamfer_steps="1"
       flexible="false"
       use_knot_distance="true"
       apply_no_radius="true"
       apply_with_radius="true"
       only_selected="false"
       hide_knots="false" />
    <linearGradient
       id="linearGradient30"
       inkscape:collect="always">
      <stop
         style="stop-color:#859d68;stop-opacity:1;"
         offset="0"
         id="stop30" />
      <stop
         style="stop-color:#8fa970;stop-opacity:0.98431;"
         offset="1"
         id="stop31" />
    </linearGradient>
    <linearGradient
       id="linearGradient29"
       inkscape:collect="always">
      <stop
         style="stop-color:#000000;stop-opacity:0.19722;"
         offset="0"
         id="stop28" />
      <stop
         style="stop-color:#010101;stop-opacity:0;"
         offset="1"
         id="stop29" />
    </linearGradient>
    <linearGradient
       id="linearGradient24"
       inkscape:collect="always">
      <stop
         style="stop-color:#4d4d4d;stop-opacity:0.23068;"
         offset="0"
         id="stop25" />
      <stop
         style="stop-color:#4d4d4d;stop-opacity:0;"
         offset="1"
         id="stop26" />
    </linearGradient>
    <linearGradient
       id="linearGradient23"
       inkscape:collect="always">
      <stop
         style="stop-color:#3e3e3e;stop-opacity:1;"
         offset="0"
         id="stop23" />
      <stop
         style="stop-color:#4d4d4d;stop-opacity:1;"
         offset="1"
         id="stop24" />
    </linearGradient>
    <linearGradient
       id="linearGradient19"
       inkscape:collect="always">
      <stop
         style="stop-color:#000000;stop-opacity:0.48293;"
         offset="0"
         id="stop20" />
      <stop
         style="stop-color:#010101;stop-opacity:0;"
         offset="1"
         id="stop21" />
    </linearGradient>
    <radialGradient
       inkscape:collect="always"
       xlink:href="#linearGradient19"
       id="radialGradient21"
       cx="1350.4"
       cy="786.81"
       fx="1350.4"
       fy="786.81"
       r="527.21"
       gradientTransform="matrix(-0.02708,-0.9645,1.0191,-0.04381,-182.18,1954.5)"
       gradientUnits="userSpaceOnUse" />
    <radialGradient
       inkscape:collect="always"
       xlink:href="#linearGradient23"
       id="radialGradient24"
       cx="615.72"
       cy="771.6"
       fx="615.72"
       fy="771.6"
       r="77.93"
       gradientTransform="matrix(-0.88538,-0.59043,0.80496,-1.2115,509.77,2097)"
       gradientUnits="userSpaceOnUse" />
    <radialGradient
       inkscape:collect="always"
       xlink:href="#linearGradient24"
       id="radialGradient26"
       cx="660.68"
       cy="1029.7"
       fx="660.68"
       fy="1029.7"
       r="20.905"
       gradientTransform="matrix(1.8516,2.801,-3.671,2.4267,3197.4,-3390.7)"
       gradientUnits="userSpaceOnUse" />
    <radialGradient
       inkscape:collect="always"
       xlink:href="#linearGradient29"
       id="radialGradient28"
       cx="675.51"
       cy="810.08"
       fx="675.51"
       fy="810.08"
       r="26.625"
       gradientTransform="matrix(-1.1657,2.5946,-1.5364,-0.68894,2734.5,-446.88)"
       gradientUnits="userSpaceOnUse" />
    <radialGradient
       inkscape:collect="always"
       xlink:href="#linearGradient30"
       id="radialGradient31"
       cx="279.9"
       cy="760.67"
       fx="279.9"
       fy="760.67"
       r="215.31"
       gradientTransform="matrix(-0.83311,0.70002,-0.54418,-0.7262,918.07,1160.8)"
       gradientUnits="userSpaceOnUse" />
    <radialGradient
       inkscape:collect="always"
       xlink:href="#linearGradient30"
       id="radialGradient31-9"
       cx="279.9"
       cy="760.67"
       fx="279.9"
       fy="760.67"
       r="215.31"
       gradientTransform="matrix(0.88568,0.39528,0.57852,-0.41006,103.02,1146.7)"
       gradientUnits="userSpaceOnUse" />
    <linearGradient
       inkscape:collect="always"
       xlink:href="#linearGradient19"
       id="linearGradient34"
       x1="99.107"
       y1="387.02"
       x2="291.8"
       y2="429.68"
       gradientUnits="userSpaceOnUse"
       gradientTransform="translate(-10)" />
    <linearGradient
       inkscape:collect="always"
       xlink:href="#linearGradient35"
       id="linearGradient36"
       x1="215.94"
       y1="567.76"
       x2="273.26"
       y2="567.76"
       gradientUnits="userSpaceOnUse"
       gradientTransform="translate(-10)" />
  </defs>
  <g
     inkscape:label="Layer 1"
     inkscape:groupmode="layer"
     id="layer1">
    <rect
       style="fill:#8fa970;fill-opacity:0.98385;fill-rule:evenodd;stroke-width:4.025;paint-order:markers stroke fill"
       id="rect1"
       width="1080"
       height="1350"
       x="0"
       y="0"
       rx="18.258"
       ry="18.258" />
    <path
       style="opacity:0.5;fill:url(#radialGradient21);fill-opacity:1;fill-rule:evenodd;stroke:none;stroke-width:4.025;paint-order:markers stroke fill"
       d="m 84.9,761.72 79.98,26.66 10.68,-63.62 66.46,-58.99 62.99,-42.38 69.88,-60.37 61.45,18.27 59.47,53.44 40.71,65.84 51.75,28.19 82.47,-16.85 68.25,-60.21 26.92,-69.46 31.89,-19.26 14.06,63.5 36.23,44.5 41.47,24.4 23.72,74.17 59.92,92.36 127.9,62.9 -266.63,299.49 -517.48,6.2 L 51.975,946.76 Z"
       id="path18"
       sodipodi:nodetypes="cccccccccccccccccccccccc" />
    <path
       style="opacity:1;fill:url(#radialGradient31);fill-opacity:1;fill-rule:evenodd;stroke:none;stroke-width:3.90371;stroke-opacity:1;paint-order:markers stroke fill"
       d="M 445.99,922.76 379.44,850.48 315.8,835.1 259.38,795.12 202.96,741.29 139.3,705.92 19.235,650.55 l -8.68,570.55 389.145,23 z"
       id="path29"
       sodipodi:nodetypes="cccccccccc" />
    <path
       style="fill:url(#radialGradient31-9);fill-opacity:1;fill-rule:evenodd;stroke:none;stroke-width:3.02456;stroke-opacity:1;paint-order:markers stroke fill"
       d="m 604.92,1012.4 70.74,-40.8 67.66,-8.8 59.98,-22.51 59.98,-30.39 67.67,-19.98 127.75,-31.26 9.2,322.14 -413.78,13 z"
       id="path29-7"
       sodipodi:nodetypes="cccccccccc" />
    <path
       style="opacity:1;fill:#e0e0e0;fill-opacity:1;fill-rule:evenodd;stroke:none;stroke-width:4.025;stroke-opacity:1;paint-order:markers stroke fill"
       d="m 404.69,831.36 -41.08,2.33 -20.79,31.2 12.5,73.87 -15.32,41.11 31.58,-6.24 9.34,-60.49 z"
       id="path36"
       sodipodi:nodetypes="cccccccc" />
    <path
       style="opacity:1;fill:#000000;fill-opacity:0.10035;fill-rule:evenodd;stroke-width:4.025;paint-order:markers stroke fill"
       d="m 708.91,300.02 -70.21,5.13 -32.52,23.97 -51.36,1.71 -17.13,-17.12 -49.65,1.72 -25.68,-13.7 -46.23,23.97 -32.54,-13.69 -47.94,-1.71 61.79,-28.82 -12.12,-32.82 39.38,-51.36 37.65,10.27 6.85,-27.39 27.39,-17.13 30.83,20.55 v 22.26 l 22.26,-3.43 11.98,15.41 -1.72,34.25 18.86,-6.85 39.38,-11.99 23.97,29.11 -6.85,23.96 23.97,-13.69 h 11.98 l 13.7,13.69 z"
       id="path15"
       sodipodi:nodetypes="ccccccccccccccccccccccccccccc" />
    <ellipse
       style="opacity:1;fill:#000000;fill-opacity:0.10035;fill-rule:evenodd;stroke-width:3.69129;paint-order:markers stroke fill"
       id="path13"
       cx="554.35"
       cy="1157"
       rx="273.94"
       ry="33.84" />
    <path
       style="opacity:1;fill:#e0e0e0;fill-opacity:1;fill-rule:evenodd;stroke:none;stroke-width:4.025;stroke-opacity:1;paint-order:markers stroke fill"
       d="m 506.96,1147.5 11.51,-183.58 -60.12,-2.56 z"
       id="path23"
       sodipodi:nodetypes="cccc" />
    <path
       style="fill:#4d4d4d;fill-opacity:1;fill-rule:evenodd;stroke-width:4.025;paint-order:markers stroke fill"
       d="m 576.35,618.24 29.47,78.57 36.46,37.39 -6.54,7.48 -40.2,-40.2 -24.77,-57.12 z"
       id="path11"
       sodipodi:nodetypes="ccccccc" />
    <path
       style="fill:#ffffff;fill-rule:evenodd;stroke-width:4.025;paint-order:markers stroke fill"
       d="M 472.29,1157.3 379.56,955.82 c 0,0 -49.15,-85.81 25.13,-124.46 117.34,-61.07 294.66,-10.02 292.78,13.27 -9.14,113 -73.94,303.67 -73.94,303.67 l 10.32,-188.44 -16.36,-1.34 -13.64,190.98 -51.45,-184.91 -86.54,5.54 z"
       id="path1"
       sodipodi:nodetypes="ccssccccccc" />
    <path
       style="fill:url(#radialGradient24);fill-opacity:1;fill-rule:evenodd;stroke-width:4.025;paint-order:markers stroke fill"
       d="m 495.53,825.46 61.4,-22.44 40.14,3.55 -35.42,-87.38 15.5,-101.92 -47.23,-15.35 -69.67,18.9 -6.04,118.44 z"
       id="path2"
       sodipodi:nodetypes="ccccccccc" />
    <path
       style="fill:#ffffff;fill-rule:evenodd;stroke-width:4.025;paint-order:markers stroke fill"
       d="m 697.44,844.68 -1.23,-75.22 31.88,-12.99 75.57,2.36 3.54,-46.05 -151.14,-55.5 -42.5,159.41 34.24,40.14 41.33,-20.07 z"
       id="path3"
       sodipodi:nodetypes="cccccccccc" />
    <path
       style="fill:#ffffff;fill-rule:evenodd;stroke-width:4.025;paint-order:markers stroke fill"
       d="m 490.81,821.92 28.34,49.59"
       id="path4" />
    <path
       style="fill:#4d4d4d;fill-rule:evenodd;stroke-width:4.025;paint-order:markers stroke fill"
       d="m 492.81,819.56 29.52,51.95 -22.44,68.49 4.73,4.72 33.06,-82.65 -22.44,-48.42 z"
       id="path5" />
    <ellipse
       style="fill:#4d4d4d;fill-rule:evenodd;stroke-width:3.78991;paint-order:markers stroke fill"
       id="path6"
       cx="544.27"
       cy="545.55"
       rx="51.363"
       ry="50.773" />
    <path
       style="fill:#4d4d4d;fill-rule:evenodd;stroke-width:5.10115;paint-order:markers stroke fill"
       d="m 459.37,621.2 -26.5,69.59 -24.71,54.38 9.87,1.8 26.42,-54.18 16.49,-40.23 z"
       id="path7"
       sodipodi:nodetypes="ccccccc" />
    <path
       style="fill:#4d4d4d;fill-rule:evenodd;stroke-width:4.025;paint-order:markers stroke fill"
       d="M 479.67,937.68 249,297.24 l 7.05,-0.69 236.78,642.21 z"
       id="path8" />
    <path
       style="fill:#cccccc;fill-opacity:1;fill-rule:evenodd;stroke-width:4.025;paint-order:markers stroke fill"
       d="m 257.55,320.99 13.14,37.82 -40.84,24.92 c 0,0 22.7,90.61 20.87,88.51 0.46,4.7 -25.48,66.81 -25.48,66.81 l 3.89,56.16 -23.19,-63.22 28.47,-58.66 -33.16,-114.52 z"
       id="path9"
       sodipodi:nodetypes="cccccccccc" />
    <path
       style="fill:#ffffff;fill-rule:evenodd;stroke-width:4.025;paint-order:markers stroke fill"
       d="m 270.69,358.81 -40.84,24.92 20.87,88.51 -25.48,66.81 38.02,64.48 -18.04,-57.93 25.47,-70.26 -12.23,-66.7 27.07,-12.05 z"
       id="path10"
       sodipodi:nodetypes="cccccccccc" />
    <path
       style="fill:#4d4d4d;fill-opacity:1;fill-rule:evenodd;stroke-width:4.025;paint-order:markers stroke fill"
       d="m 237.97,296.26 11.47,-7.99 13.82,-1.27 -30.09,-38 z"
       id="path12"
       sodipodi:nodetypes="ccccc" />
    <path
       style="opacity:1;fill:#000000;fill-opacity:0.09227;fill-rule:evenodd;stroke-width:4.025;paint-order:markers stroke fill"
       d="m 775.89,372.04 34.24,-41.09 h 31.53 l 21.9,27.4 29.11,-4.54 19.77,23.9 -4.72,30.29 47.94,5.13 49.74,10.28 -179.86,-3.43 -37.67,15.41 -39.38,-3.42 -32.53,-11.99 -56.5,1.71 73.62,-11.98 -5.13,-39.38 22.13,-7.15 z"
       id="path14"
       sodipodi:nodetypes="cccccccccccccccccc" />
    <path
       style="opacity:1;fill:#ffffff;fill-opacity:1;fill-rule:evenodd;stroke-width:3.44642;paint-order:markers stroke fill"
       d="m 673.82,663.69 2.19,-39.33 -19.95,33.76 z"
       id="path16"
       sodipodi:nodetypes="cccc" />
    <path
       style="opacity:1;fill:none;fill-opacity:1;fill-rule:evenodd;stroke:#616161;stroke-width:3.5417;stroke-opacity:1;paint-order:markers stroke fill"
       d="m 536.65,639.14 -38.97,60.07 30.05,-3.46 20.45,3.63 z"
       id="path17"
       sodipodi:nodetypes="ccccc" />
    <path
       style="opacity:1;fill:url(#radialGradient26);fill-opacity:1;fill-rule:evenodd;stroke:none;stroke-width:4.025;stroke-opacity:1;paint-order:markers stroke fill"
       d="m 633.36,958.61 32.4,2.09 -41.81,181.9 z"
       id="path24" />
    <path
       style="opacity:1;fill:url(#radialGradient28);fill-opacity:1;fill-rule:evenodd;stroke:none;stroke-width:4.025;stroke-opacity:1;paint-order:markers stroke fill"
       d="m 696.62,769.87 0.88,72.45 -7.86,51.5 -70.7,-45.4 44.51,-88.15 z"
       id="path26"
       sodipodi:nodetypes="cccccc" />
    <path
       style="opacity:1;fill:url(#linearGradient34);fill-rule:evenodd;stroke:none;stroke-width:4.025;stroke-opacity:1;paint-order:markers stroke fill"
       d="m 201.25,358.81 57.21,49.83 12.23,66.7 -36.28,-2.01 z"
       id="path33"
       sodipodi:nodetypes="ccccc" />
    <path
       style="opacity:1;fill:url(#linearGradient36);fill-rule:evenodd;stroke:none;stroke-width:4.025;stroke-opacity:1;paint-order:markers stroke fill"
       d="m 263.26,603.53 -18.04,-57.93 -19.98,-6.55 -19.3,-7.06 23.19,63.22 -3.89,-56.16 z"
       id="path34" />
  </g>
</svg>
