<?xml version="1.0" standalone="no"?>
<!DOCTYPE svg PUBLIC "-//W3C//DTD SVG 20010904//EN"
 "http://www.w3.org/TR/2001/REC-SVG-20010904/DTD/svg10.dtd">
<svg version="1.0" xmlns="http://www.w3.org/2000/svg"
 width="256.000000pt" height="256.000000pt" viewBox="0 0 256.000000 256.000000"
 preserveAspectRatio="xMidYMid meet">
<metadata>
Created by potrace 1.14, written by Peter Selinger 2001-2017
</metadata>
<g transform="translate(0.000000,256.000000) scale(0.100000,-0.100000)"
fill="#000000" stroke="none">
<path d="M245 2546 c-89 -28 -177 -107 -218 -194 l-22 -47 0 -1025 0 -1025 29
-57 c35 -69 94 -128 166 -165 l55 -28 1025 0 1025 0 57 29 c69 35 127 93 165
166 l28 55 0 1025 0 1025 -28 55 c-37 72 -96 131 -165 166 l-57 29 -1010 2
c-788 1 -1019 -1 -1050 -11z"/>
</g>
</svg>
