<svg xmlns="http://www.w3.org/2000/svg" xmlns:xlink="http://www.w3.org/1999/xlink" viewBox="0 0 716.86 476.17">
  <defs>
    <style>
      .cls-1 {
        fill: url(#radial-gradient);
      }

      .cls-2 {
        fill: url(#radial-gradient-2);
      }

      .cls-3 {
        fill: url(#radial-gradient-3);
      }

      .cls-4 {
        fill: #777;
      }

      .cls-18, .cls-5 {
        opacity: 0.15;
      }

      .cls-5 {
        fill: url(#radial-gradient-4);
      }

      .cls-6 {
        fill: #514525;
      }

      .cls-7 {
        opacity: 0.38;
        fill: url(#radial-gradient-5);
      }

      .cls-8 {
        fill: #d8dba2;
      }

      .cls-9 {
        fill: url(#radial-gradient-6);
      }

      .cls-10 {
        fill: #8e9e29;
      }

      .cls-11 {
        fill: url(#linear-gradient);
      }

      .cls-12 {
        opacity: 0.35;
      }

      .cls-13 {
        fill: url(#radial-gradient-7);
      }

      .cls-14 {
        fill: url(#radial-gradient-8);
      }

      .cls-15 {
        fill: url(#linear-gradient-2);
      }

      .cls-16 {
        fill: url(#linear-gradient-3);
      }

      .cls-17 {
        fill: url(#linear-gradient-4);
      }

      .cls-19 {
        fill: #474747;
      }

      .cls-20 {
        fill: #5e5e5e;
      }

      .cls-21 {
        fill: #ededed;
      }

      .cls-22 {
        fill: #fff;
      }

      .cls-23 {
        fill: url(#linear-gradient-5);
      }

      .cls-24 {
        fill: url(#linear-gradient-6);
      }

      .cls-25 {
        fill: url(#linear-gradient-7);
      }

      .cls-26 {
        opacity: 0.17;
      }

      .cls-27 {
        opacity: 0.13;
      }

      .cls-28 {
        fill: url(#radial-gradient-9);
      }

      .cls-29 {
        fill: url(#radial-gradient-10);
      }

      .cls-30 {
        fill: url(#radial-gradient-11);
      }

      .cls-31 {
        fill: url(#radial-gradient-12);
      }

      .cls-32 {
        fill: url(#radial-gradient-13);
      }

      .cls-33 {
        fill: #8fad66;
      }
    </style>
    <radialGradient id="radial-gradient" cx="361.17" cy="144.44" r="60.8" gradientTransform="translate(-12.2 35.82) rotate(-5.27)" gradientUnits="userSpaceOnUse">
      <stop offset="0" stop-color="#436332"/>
      <stop offset="0.85" stop-color="#8fad66"/>
    </radialGradient>
    <radialGradient id="radial-gradient-2" cx="403.51" cy="194.14" r="88.89" gradientUnits="userSpaceOnUse">
      <stop offset="0.34" stop-color="#436332"/>
      <stop offset="0.55" stop-color="#5f7e45"/>
      <stop offset="0.84" stop-color="#82a05d"/>
      <stop offset="1" stop-color="#8fad66"/>
    </radialGradient>
    <radialGradient id="radial-gradient-3" cx="422.06" cy="519.64" r="349.77" gradientTransform="translate(-64.18 348.1) rotate(0.27) scale(1 0.14)" gradientUnits="userSpaceOnUse">
      <stop offset="0" stop-color="#0c1930" stop-opacity="0.5"/>
      <stop offset="1" stop-color="#0c1930" stop-opacity="0"/>
    </radialGradient>
    <radialGradient id="radial-gradient-4" cx="456.06" cy="459.99" r="94.2" gradientUnits="userSpaceOnUse">
      <stop offset="0" stop-opacity="0.8"/>
      <stop offset="1" stop-opacity="0.2"/>
    </radialGradient>
    <radialGradient id="radial-gradient-5" cx="424.37" cy="335.48" r="114.03" gradientTransform="translate(0 -314.29) scale(1 1.94)" gradientUnits="userSpaceOnUse">
      <stop offset="0.43" stop-opacity="0"/>
      <stop offset="1" stop-opacity="0.97"/>
    </radialGradient>
    <radialGradient id="radial-gradient-6" cx="364.89" cy="167.38" r="66.52" gradientUnits="userSpaceOnUse">
      <stop offset="0" stop-opacity="0.3"/>
      <stop offset="1" stop-opacity="0.1"/>
    </radialGradient>
    <linearGradient id="linear-gradient" x1="349.61" y1="381.91" x2="345.09" y2="390.43" gradientTransform="translate(-37.42 36.71) rotate(-5.71)" gradientUnits="userSpaceOnUse">
      <stop offset="0.26" stop-color="#fff"/>
      <stop offset="0.47" stop-color="#fff"/>
    </linearGradient>
    <radialGradient id="radial-gradient-7" cx="385.46" cy="395.44" r="40.97" gradientTransform="matrix(1, 0.07, -0.1, 1.48, 41.23, -217.8)" gradientUnits="userSpaceOnUse">
      <stop offset="0" stop-color="#8c8c8c"/>
      <stop offset="0.08" stop-color="#989898"/>
      <stop offset="0.34" stop-color="#bababa"/>
      <stop offset="0.59" stop-color="#d2d2d2"/>
      <stop offset="0.81" stop-color="#e1e1e1"/>
      <stop offset="1" stop-color="#e6e6e6"/>
    </radialGradient>
    <radialGradient id="radial-gradient-8" cx="318.95" cy="466.67" r="31.75" gradientUnits="userSpaceOnUse">
      <stop offset="0"/>
      <stop offset="1" stop-opacity="0"/>
    </radialGradient>
    <linearGradient id="linear-gradient-2" x1="413.92" y1="410.83" x2="408.12" y2="396.82" gradientUnits="userSpaceOnUse">
      <stop offset="0" stop-color="#0c1930" stop-opacity="0.2"/>
      <stop offset="1" stop-color="#0c1930" stop-opacity="0"/>
    </linearGradient>
    <linearGradient id="linear-gradient-3" x1="305.97" y1="472.18" x2="297.03" y2="447.3" gradientUnits="userSpaceOnUse">
      <stop offset="0.01" stop-color="#a6a6a6"/>
      <stop offset="0.26" stop-color="#aaa"/>
      <stop offset="0.5" stop-color="#b6b6b6"/>
      <stop offset="0.75" stop-color="#cacaca"/>
      <stop offset="1" stop-color="#e6e6e6"/>
    </linearGradient>
    <linearGradient id="linear-gradient-4" x1="312.32" y1="558.28" x2="336.71" y2="446.97" gradientUnits="userSpaceOnUse">
      <stop offset="0"/>
      <stop offset="0.02" stop-color="#171717"/>
      <stop offset="0.08" stop-color="#424242"/>
      <stop offset="0.13" stop-color="#696969"/>
      <stop offset="0.2" stop-color="#8b8b8b"/>
      <stop offset="0.26" stop-color="#a7a7a7"/>
      <stop offset="0.34" stop-color="#bfbfbf"/>
      <stop offset="0.43" stop-color="#d0d0d0"/>
      <stop offset="0.53" stop-color="#ddd"/>
      <stop offset="0.67" stop-color="#e4e4e4"/>
      <stop offset="1" stop-color="#e6e6e6"/>
    </linearGradient>
    <linearGradient id="linear-gradient-5" x1="303.66" y1="272.13" x2="308.84" y2="272.13" gradientTransform="matrix(1, 0, 0, 1, 0, 0)" xlink:href="#radial-gradient-3"/>
    <linearGradient id="linear-gradient-6" x1="302.66" y1="271.89" x2="309.56" y2="271.89" gradientTransform="matrix(1, 0, 0, 1, 0, 0)" xlink:href="#radial-gradient-3"/>
    <linearGradient id="linear-gradient-7" x1="348.58" y1="376.59" x2="374.26" y2="376.59" gradientTransform="translate(-37.42 36.71) rotate(-5.71)" gradientUnits="userSpaceOnUse">
      <stop offset="0" stop-color="#d4d4d4"/>
      <stop offset="0.04" stop-color="#eaeaea"/>
      <stop offset="0.08" stop-color="#fcfcfc"/>
      <stop offset="0.17" stop-color="#fdfdfd"/>
      <stop offset="0.36" stop-color="#fff"/>
      <stop offset="0.54" stop-color="#fcfcfc"/>
      <stop offset="0.65" stop-color="#f4f4f4"/>
      <stop offset="0.74" stop-color="#e5e5e5"/>
      <stop offset="0.82" stop-color="#d0d0d0"/>
      <stop offset="0.9" stop-color="#b5b5b5"/>
      <stop offset="0.97" stop-color="#959595"/>
      <stop offset="1" stop-color="#858585"/>
    </linearGradient>
    <radialGradient id="radial-gradient-9" cx="354.32" cy="154.96" r="60.8" gradientTransform="translate(-10.31 323.86) rotate(-47.35)" gradientUnits="userSpaceOnUse">
      <stop offset="0" stop-color="#5a7a44"/>
      <stop offset="0.56" stop-color="#989c63"/>
      <stop offset="0.85" stop-color="#a9ad6e"/>
    </radialGradient>
    <radialGradient id="radial-gradient-10" cx="315.37" cy="210.45" r="129.11" gradientUnits="userSpaceOnUse">
      <stop offset="0" stop-color="#436332"/>
      <stop offset="0.01" stop-color="#476735"/>
      <stop offset="0.11" stop-color="#5f7e45"/>
      <stop offset="0.21" stop-color="#708e51"/>
      <stop offset="0.33" stop-color="#7a9858"/>
      <stop offset="0.47" stop-color="#7d9b5a"/>
      <stop offset="0.69" stop-color="#86a460"/>
      <stop offset="0.85" stop-color="#8fad66"/>
    </radialGradient>
    <radialGradient id="radial-gradient-11" cx="400.18" cy="199.27" r="88.28" gradientTransform="matrix(1, 0, 0, 1, 0, 0)" xlink:href="#radial-gradient"/>
    <radialGradient id="radial-gradient-12" cx="369.37" cy="163.18" r="67.81" gradientTransform="matrix(1, 0, 0, 1, 0, 0)" xlink:href="#radial-gradient"/>
    <radialGradient id="radial-gradient-13" cx="348.87" cy="146.54" r="55.76" gradientTransform="translate(51.25 347.67) rotate(-47.83) scale(1 0.58)" xlink:href="#radial-gradient"/>
  </defs>
  <g id="Layer_5" data-name="Layer 5">
    <path class="cls-1" d="M403.08,129.33l-1.54,14.93-6.71-9.64,3.05,12-8.63,8.24-4.56-14.14,1.51,16.43s-4,9.36-4.14,7.43-4.48-3-4.48-3l.16,18.79-7.74.72,2.76-22.74-4.67,2,1.69-13.19-5.9,4.79L360,135.57l7.13-6.8,19-7.9Z" transform="translate(-64.51 -98.91)"/>
    <path class="cls-2" d="M403.08,151l40.31,15.67-4.67,46.41-10.65-15.22,2.1,19.12-13,9.58-9.28-16.17L411.34,232H396.17V221.6L390.78,232s-9.65,9.59-10.11,8.06-1.57-13.45-1.57-13.45l-5,13.62-11.4,7.34,6.17-28.75,7.17-2.39.07-8.4,5.45-15.56,17.07-3.25-12-4.77Z" transform="translate(-64.51 -98.91)"/>
  </g>
  <g id="Layer_1" data-name="Layer 1">
    <ellipse class="cls-3" cx="358.43" cy="420.72" rx="358.43" ry="55.45"/>
    <path class="cls-4" d="M538.94,491.66c1-.29,15.16-32.71,11-40.26s-43.12-42.31-55.43-41.61S452,415.25,450.39,422.4s-23.83,42.88-22.24,46.85S480.57,508.51,538.94,491.66Z" transform="translate(-64.51 -98.91)"/>
    <path class="cls-5" d="M450.39,422.4s15.68,22.15,34.52,10.59,10.87,3.34,10.87,3.34,14.57,17.6,31.9,13.36,22.22,1.71,22.22,1.71,1.77,35.87-22.55,36.66-67.81,7.16-72.88-6.91S450.39,422.4,450.39,422.4Z" transform="translate(-64.51 -98.91)"/>
    <path class="cls-6" d="M368.17,201.27S439.72,402.69,398,453s64.22,14.29,64.22,14.29S450.31,320.55,386.58,184.4C369,146.91,368.17,201.27,368.17,201.27Z" transform="translate(-64.51 -98.91)"/>
    <path class="cls-7" d="M368.17,201.27S439.72,402.69,398,453s64.22,14.29,64.22,14.29S450.31,320.55,386.58,184.4C369,146.91,368.17,201.27,368.17,201.27Z" transform="translate(-64.51 -98.91)"/>
    
		<path id="sand-animated" class="cls-8" d="M201.17,502.27c8.3-7.49,117-26,142-52,12.34-12.83,61-15,71-10s70,31,84,30,94,0,104,7,51.63,21.34,35,29.68c-26.89,13.47-87.38,16.36-169.88,15.45-29.61-.33-117.53.89-136,1.28C284.28,524.68,198.53,513.55,217.77,496.19Z" transform="translate(-64.51 -98.91)" fill="red"/>

		<path id="sand-low"      class="cls-8" d="M201.17,502.27c8.3-7.49,117-26,142-52,12.34-12.83,61-15,71-10s70,31,84,30,94,0,104,7,67.75,30.61,51.08,39c-26.89,13.47-102.58,23-185.08,22-29.61-.32-124.56-.39-143,0C278.17,539.27,181.93,519.64,201.17,502.27Z" transform="translate(-64.51 -98.91)"/>
    <path id="sand-high"     class="cls-8" d="M217.77,496.19c8.3-7.49,100.4-19.92,125.4-45.92,12.34-12.83,61-15,71-10s70,31,84,30,94,0,104,7,51.63,21.34,35,29.68c-26.89,13.47-87.38,16.36-169.88,15.45-29.61-.33-117.53-.89-136,1.28C284.28,524.68,198.53,513.55,217.77,496.19Z" transform="translate(-64.51 -98.91)"/>
    <path class="cls-9" d="M362.67,184.3S375,219.62,382.47,246c-6.39-20.88,13.7-51.53,21.75-20.52-12.85-36.33-23.55-51.22-23.55-51.22l-6.32-3.06Z" transform="translate(-64.51 -98.91)"/>
  </g>
  <g id="Layer_3" data-name="Layer 3">
    <path class="cls-10" d="M334.43,382.67c2.46,3.79,15.6,9.55,24,9.17-3,8.53-16,31.64-16,31.64s-16.8-.82-15.93-3S334.43,382.67,334.43,382.67Z" transform="translate(-64.51 -98.91)"/>
    <path class="cls-11" d="M335.17,378.66c1.52-1.26,20.36,4.35,24.4,9.28,2.34,2.85-1.16,3.9-1.16,3.9s-15.57.11-24-9.17C332.52,380.55,335.17,378.66,335.17,378.66Z" transform="translate(-64.51 -98.91)"/>
  </g>
  <g id="Layer_2" data-name="Layer 2">
    <g class="cls-12">
      <path d="M268.52,480.22s28.27,6.4,30.2,12.72-1.24,17.28-1.24,17.28,9.06-6.37,18.3-14C329.31,485,347.5,483,376.08,484.48c14.23.72,61-.66,66.8-11.44s7.38-16.09,11.49-15.63c-4.54-2-8.48-3.37-12.26-4.94,2.51-8.25,3.66-30.59,1.73-38s-24.08-33-21-44.36,10.49-17.1,5.21-24.39-12.27-18.74-22.9-12.5-3.05,60,2,74.51-2.45,55.44-16,54-39.19-11.66-50-11.11C339.17,458.16,298.72,473.13,268.52,480.22Z" transform="translate(-64.51 -98.91)"/>
    </g>
    <path class="cls-13" d="M318.32,434.11c-3.31-1.16-1.73-6,8.27-15s47.08,1.49,54.08-8.51,11.42-32.49,20.92-34.49,21-2,27.58,17.81c6.39,19.08,5.43,26.83,3.43,40.83-1.92,13.46-6.12,28.8-25,36.36C332.59,501.07,344.17,443.17,318.32,434.11Z" transform="translate(-64.51 -98.91)"/>
    <path class="cls-14" d="M318.32,434.11c-3.31-1.16-1.73-6,8.27-15s47.08,1.49,54.08-8.51,11.42-32.49,20.92-34.49,19.9-1.63,27.58,17.81c7.6,19.21,6.56,26.74,5,41.55-1.44,13.53-7.66,28.08-26.55,35.64C332.59,501.07,344.17,443.17,318.32,434.11Z" transform="translate(-64.51 -98.91)"/>
    <path class="cls-15" d="M405.78,415.38s16.75-4.93,16.41-5.6-1.18-15.9-1.18-15.9l-10.2-4.4s-17.23,5.12-17.23,5.48,5.8,14.82,5.8,14.82Z" transform="translate(-64.51 -98.91)"/>
    <path class="cls-16" d="M268.52,480.22s2.26,3.07,15.26-1.93c16.88-6.49,17.32-7.55,17.32-7.55-9-20-.26-41.64,13.68-37.45,20,6,15.32-16,7-20-23-11-36,13-38,41C283.07,464.2,274.23,463.86,268.52,480.22Z" transform="translate(-64.51 -98.91)"/>
    <path class="cls-17" d="M371.56,479.62s-42,4.53-60.08,16.6a49.34,49.34,0,0,0-14,14s-9,6-14-3c-5.87-10.56-10-24.15-8-31s18,9,18,9a238.12,238.12,0,0,1,50.69-28.13c2.39-1,10.51-5,9.55-13C369.24,429.88,410,467.33,371.56,479.62Z" transform="translate(-64.51 -98.91)"/>
    <g class="cls-18">
      <path d="M301.57,413.14c4.45-.23,22.76,12.95,16.75,21,4,3.68,10.6,3.68,20.74,25.14,23.61-10,5.82-31.57,41.81-37.37,5.44-.88,15.81-1.93,21.41-1,11.6,1.86,25.18,43.34-6.11,54.33,44.41-8.09,38.75-60.66,35.89-71.58-1.33-5.05-4.7-21.06-14.62-26.27-10.57-5.56-22.89,1.15-26.66,11.7,16.7,5.69,26-11,33.73-3.87,6.46,6-3.87,28.29-3.87,28.29l-44.56,2.41s-63.68-9.9-64.4-10.14S301.57,413.14,301.57,413.14Z" transform="translate(-64.51 -98.91)"/>
    </g>
    <polygon class="cls-19" points="221.66 307.86 221.66 299.36 275.41 299.36 331.66 314.15 331.66 319.9 279.66 331.86 221.66 307.86"/>
    <polygon class="cls-20" points="207.28 299.36 183.66 245.86 185.66 238.86 263.66 254.86 279.66 321.86 276.66 325.86 207.28 299.36"/>
    <path class="cls-21" d="M417.17,391.27c-.82,3.08,4.08,22.25-10,16.51s-31-19.51-40-17.51c-10.51,2.34-20.93,9.75-13,14,4.27,2.29,13-6.94,15-3,.46.9,1.56,5.25,4,6,9.67,2.85,23.76,5.36,23,5.79v5.75l-8.25,1.9s9.93,3.25,24.25,1.56c17-2,18-19.66,18-19.66C430.17,386,418.17,382.27,417.17,391.27Z" transform="translate(-64.51 -98.91)"/>
    <path class="cls-22" d="M358.17,328.27l-5.31,35.25c4,1.8,12.11,1.69,14.31.75,2.48-1,1,15,8,18s16.61-5.5,23.5-11.5,11,0,18.5-28.5c0-16.15-14-46-41-37C359.61,310.8,358.17,328.27,358.17,328.27Z" transform="translate(-64.51 -98.91)"/>
    <path d="M405.17,333.27c-.39,2.23-.5-4.1,5.5-3.5s7,9,3,15c-2,2.94-6.5-.5-6.5-.5s.11,3.42,0,5c-1.35,20-15.36,6.84-32,13,13,4,15,13,7,17-7,3.5-11.59,1.39-10.26-16.33-2.18.62-4.06,1.22-4.74,1.33,1,8,.25,13.5,1,18,.9,5.38,5.3,8,9,7s7.42.24,13-4,6.21-2,12.11-6,8.89-2,10.89-5,4-3.5,4-10-5-12.45,0-14.45c3.38-1.35,7.3-12.07,5-15.55s1.08-6.63-1-12,3-6-2-10-1-4-11-6-4-3-9-7-5-2-11-2c-3-4-10-4-14,3-3-8-15-1-13,7-9-2-7.69,6.8-7.69,6.8-6,1-8.68,7.6-2.31,12.2,5.85,4.22,10,1,11.94-3.5,5.06,3.5,8.06-.5,11.06-3.5,4.46,2.55,7,2,10,0,4,5,6.5,4.5,10,3,4.5-2.5,2.5,5.5,6.5,5.5,3,6,.5,7.5,2.5,7.5A2,2,0,0,0,405.17,333.27Z" transform="translate(-64.51 -98.91)"/>
    <g>
      <circle cx="311.57" cy="240.95" r="4.59"/>
      <circle cx="301.44" cy="243.58" r="3.28"/>
    </g>
    <polygon class="cls-23" points="308.84 280.59 303.66 276.58 303.66 265.12 308.78 263.68 308.84 280.59"/>
    <polygon class="cls-24" points="309.56 280.35 303.33 276.34 302.66 265.36 309.49 263.43 309.56 280.35"/>
    <path class="cls-25" d="M347.45,382.21c.21,1.07,1.19,1.22,2.57.92,0,0,2.7-7.56,2.9-8,1.63-3.75,3.83-3.74,5-3.66s13.22.33,13.43-.28a14.54,14.54,0,0,1,.66-1.43L359.92,369a8,8,0,0,0-9,5.68C349.11,380.1,347.45,382.21,347.45,382.21Z" transform="translate(-64.51 -98.91)"/>
    <path class="cls-22" d="M374.07,365.11s0,2.36-1.56,2-3.82-1.83-3.21.32,2.61,2.87,1,3.17c-.87.16-2.64,3.26-.38,2.95s2.17-2.08,2.39.29c.35,3.82,5.31,6.11,5.31,6.11s1-11.31,1.09-12.06S374.07,365.11,374.07,365.11Z" transform="translate(-64.51 -98.91)"/>
    <path class="cls-26" d="M358.17,328.27l-.24,1.64s4.74,0,5.85-2.87c3.31.43,8.81-1.14,10.29-4.19,1.91,1.49,8,3.06,8.76-1,1.86,2.49,7.83,4.38,10.7,3.6a2.8,2.8,0,0,1,2.93.89c1.64,1.95,4,3.75,4.21,1.41.36-3.24.85-12.76-.62-13.74s-20.68,2-20.68,2l-21,4.89Z" transform="translate(-64.51 -98.91)"/>
    <path class="cls-27" d="M406.33,339.21c.07.81,0-2.85.63-4.32a3.83,3.83,0,0,1,.51-.86c1.14-1.4,2.09-2.75,3.87-2s3.26,1.59,3.31,3.57a29.39,29.39,0,0,1-.66,4.7c0,.51,0-1.77-1-2.08s-2.46.82-2.46.82c-1.2,1.7-1.58-2.86-1.58-2.86s-1-.74-1.74.08A3.88,3.88,0,0,0,406.33,339.21Z" transform="translate(-64.51 -98.91)"/>
  </g>
  <g id="Layer_4" data-name="Layer 4">
    <path class="cls-28" d="M363.67,127.1l8.86,12.11-11.44-2.65,10.31,6.87-.88,11.89-12.86-7.43,12.14,11.18s3.32,9.59,1.9,8.29-5.31.8-5.31.8L379.1,182l-5.26,5.72L360.65,169l-2.14,4.6-7.58-10.93-1.17,7.51-13.9-9.56.74-9.83,8.81-18.6Z" transform="translate(-64.51 -98.91)"/>
    <path class="cls-29" d="M341.47,172.61S248.62,117.53,174,216.68c-7.88,10.48-21.7,37.81-32.18,52.13,14.4-3.3,36.59-21.78,36.59-21.78l-3.64-16.52L190,238.33l30.6-21.27L206.4,198.7l21.85,11.87,30.12-12.71,3.29-20.9L279,196.32l22.61,1.54,4.57-23.78,10.62,21.44,19.89,5.11,4.82-15.46s26,19.33,26,16.43-6.87-18.36-6.87-18.36Z" transform="translate(-64.51 -98.91)"/>
    <path class="cls-30" d="M386.58,184.4s2.59-19.47,17.76-19.47c10.3,0,10.85,19.47,10.85,19.47l19.71,9.67,12.47-36.73v40.59l22.32,19.33,12.68-34.79-4,40.59,16.54,24.16,22.12-24.16-14.5,35.76s5.8,4.83,5.8,20.29,20.29-22.23,20.29-22.23-11.59,43.49-12.56,45.43-4.83,27.6-4.83,27.6,34.61-39.18,32.42-59.5c-12.13-112.1-100.37-129.5-100.37-129.5-65.29,0-62.71,30.93-62.71,30.93Z" transform="translate(-64.51 -98.91)"/>
    <path class="cls-31" d="M361.45,172.68s-21-37.25-37.77-42.08-51.76,2.82-63.49,18.1c-14.79,19.27-22.2,55-24.78,78.55s-1.61,39.3-1.61,39.3l11.27-20.3-2.9-15.46s9.81,1.55,10.63,1c2.58-1.83,9.35-13.53,9.35-13.53l-10-14.82,18.28,1.15s7.17-21,7.81-22.41-9.73-12.57-9.73-12.57l21,2.63,13.83-12.61-8.7-13.53L307.89,159,325,160.56s3.2-12.56,2.25-11.59,1.61,11.91,1.61,11.91l10.63,2.9s4.59-5.79,4.71-4.83,8.69,14.57,8.69,14.57L362.67,187l4.79,3.54Z" transform="translate(-64.51 -98.91)"/>
    <path class="cls-32" d="M299.36,271.38c-1-1.93,30.92-27.54,30.92-27.54l-5.8-15.47,11.6,9.19,18.85-20.78-7.43-17.4,10.91,11.12,14.94-5.32-4.51-9.91,7.24,5.56,2.66-10.63-2.66-7.73-7.91-10.13S357,152,342.45,158.79s-23.28,30-23.28,30l7.32-7.25-9.73,14-8.22,16.91,9.66-6-16.63,19-5.4,9.93,11.4-9-15,18.36-2.42,11.6,6-7.25s-4.09,9-7.29,16.17c-1.06,2.35-2,4.5-2.71,6.06-2.76,6.28-2.76,14.4-2.76,14.4l9.66-8.6-.48-6.77Z" transform="translate(-64.51 -98.91)"/>
    <path class="cls-33" d="M443.35,209.88c-.59,41.87-8.74,30.08-8.74,30.08l-1.18,13-4.32,14s-7.64-10-5.86-8.53-2.76,11.54-2.76,11.54-18.91,11.53-18.91,10,3.65-29.33,3.65-29.33l8.62-5.51-6.53-3.51,5.58-24.82L426.12,208H411.5l-5.72-22,19-13.18s-21.94.75-21.94-.76-6.79-7-6.79-7l-1-11-14.56,14.31-7,11-5.35.5S445.44,63,443.35,209.88Z" transform="translate(-64.51 -98.91)"/>
    <path class="cls-33" d="M312.4,189.17,333.26,177l.05-7.38,6.89,4,18.19-13,1.4-20.82L363.38,155l20.83-10.37-1.42-17.42,8,17.86,15-8.22s-7.17-24.1-24.08-35.35-38.21,17.67-41.11,24.22-8.26,15.42-8.26,15.42l9.11-5.92-10.86,9.5L326,155.23l4.46-3.9-5.09,5.95-5.55,10.61,3.7-2.17-5.64,7Z" transform="translate(-64.51 -98.91)"/>
  </g>
</svg>
