<?xml version="1.0" encoding="utf-8"?>
<!-- Generator: Adobe Illustrator 25.1.0, SVG Export Plug-In . SVG Version: 6.00 Build 0)  -->
<svg version="1.1" xmlns="http://www.w3.org/2000/svg" xmlns:xlink="http://www.w3.org/1999/xlink" x="0px" y="0px"
	 viewBox="0 0 822.7 675.5" style="enable-background:new 0 0 822.7 675.5;" xml:space="preserve">
<style type="text/css">
	.st0{fill:url(#SVGID_1_);}
	.st1{fill:url(#SVGID_2_);}
	.st2{fill:url(#SVGID_3_);}
	.st3{fill:url(#SVGID_4_);}
	.st4{fill:#777777;}
	.st5{opacity:0.15;fill:url(#SVGID_5_);}
	.st6{fill:#514525;}
	.st7{opacity:0.38;fill:url(#SVGID_6_);}
	.st8{fill:#D8DBA2;}
	.st9{fill:url(#SVGID_7_);}
	.st10{fill:#8E9E29;}
	.st11{fill:url(#SVGID_8_);}
	.st12{opacity:0.35;}
	.st13{fill:url(#SVGID_9_);}
	.st14{fill:url(#SVGID_10_);}
	.st15{fill:url(#SVGID_11_);}
	.st16{fill:url(#SVGID_12_);}
	.st17{fill:url(#SVGID_13_);}
	.st18{opacity:0.15;}
	.st19{fill:#474747;}
	.st20{fill:#5E5E5E;}
	.st21{fill:#EDEDED;}
	.st22{fill:#FFFFFF;}
	.st23{fill:url(#SVGID_14_);}
	.st24{fill:url(#SVGID_15_);}
	.st25{fill:url(#SVGID_16_);}
	.st26{opacity:0.17;}
	.st27{opacity:0.13;}
	.st28{fill:url(#SVGID_17_);}
	.st29{fill:url(#SVGID_18_);}
	.st30{fill:url(#SVGID_19_);}
	.st31{fill:url(#SVGID_20_);}
	.st32{fill:url(#SVGID_21_);}
	.st33{fill:#8FAD66;}
</style>
<g id="Layer_6">
	<linearGradient id="SVGID_1_" gradientUnits="userSpaceOnUse" x1="411.3415" y1="675.5422" x2="411.3415" y2="-9.094947e-13">
		<stop  offset="0" style="stop-color:#606DAF"/>
		<stop  offset="1" style="stop-color:#C0C9FF"/>
	</linearGradient>
	<rect class="st0" width="822.7" height="675.5"/>
</g>
<g id="Layer_5">
	
		<radialGradient id="SVGID_2_" cx="361.1714" cy="144.4413" r="60.8" gradientTransform="matrix(0.9958 -9.181599e-02 9.181599e-02 0.9958 -12.2022 35.8191)" gradientUnits="userSpaceOnUse">
		<stop  offset="0" style="stop-color:#436332"/>
		<stop  offset="0.8478" style="stop-color:#8FAD66"/>
	</radialGradient>
	<path class="st1" d="M403.1,129.3l-1.5,14.9l-6.7-9.6l3,12l-8.6,8.2l-4.6-14.1l1.5,16.4c0,0-4,9.4-4.1,7.4s-4.5-3-4.5-3l0.2,18.8
		l-7.7,0.7l2.8-22.7l-4.7,2l1.7-13.2l-5.9,4.8l-3.9-16.4l7.1-6.8l19-7.9L403.1,129.3z"/>
	<radialGradient id="SVGID_3_" cx="403.5103" cy="194.1362" r="88.8927" gradientUnits="userSpaceOnUse">
		<stop  offset="0.3447" style="stop-color:#436332"/>
		<stop  offset="0.5498" style="stop-color:#5F7E45"/>
		<stop  offset="0.8422" style="stop-color:#82A05D"/>
		<stop  offset="1" style="stop-color:#8FAD66"/>
	</radialGradient>
	<path class="st2" d="M403.1,151l40.3,15.7l-4.7,46.4l-10.6-15.2l2.1,19.1l-13,9.6l-9.3-16.2l3.5,21.6h-15.2v-10.4l-5.4,10.4
		c0,0-9.6,9.6-10.1,8.1s-1.6-13.5-1.6-13.5l-5,13.6l-11.4,7.3l6.2-28.7l7.2-2.4l0.1-8.4l5.4-15.6l17.1-3.3l-12-4.8L403.1,151z"/>
</g>
<g id="Layer_1">
	
		<radialGradient id="SVGID_4_" cx="422.0582" cy="519.6355" r="349.7738" gradientTransform="matrix(1 4.639804e-03 -6.309517e-04 0.136 0.3324 447.0145)" gradientUnits="userSpaceOnUse">
		<stop  offset="0" style="stop-color:#0C1930;stop-opacity:0.5"/>
		<stop  offset="1" style="stop-color:#0C1930;stop-opacity:0"/>
	</radialGradient>
	<ellipse class="st3" cx="422.9" cy="519.6" rx="358.4" ry="55.4"/>
	<path class="st4" d="M538.9,491.7c1-0.3,15.2-32.7,11-40.3c-4.2-7.6-43.1-42.3-55.4-41.6c-12.3,0.7-42.5,5.5-44.1,12.6
		c-1.6,7.1-23.8,42.9-22.2,46.9C429.7,473.2,480.6,508.5,538.9,491.7z"/>
	<radialGradient id="SVGID_5_" cx="456.0585" cy="459.985" r="94.196" gradientUnits="userSpaceOnUse">
		<stop  offset="0" style="stop-color:#000000;stop-opacity:0.8"/>
		<stop  offset="1" style="stop-color:#000000;stop-opacity:0.2"/>
	</radialGradient>
	<path class="st5" d="M450.4,422.4c0,0,15.7,22.2,34.5,10.6c18.8-11.6,10.9,3.3,10.9,3.3s14.6,17.6,31.9,13.4
		c17.3-4.2,22.2,1.7,22.2,1.7s1.8,35.9-22.5,36.7c-24.3,0.8-67.8,7.2-72.9-6.9C449.4,467.1,450.4,422.4,450.4,422.4z"/>
	<path class="st6" d="M368.2,201.3c0,0,71.6,201.4,29.8,251.7s64.2,14.3,64.2,14.3s-11.9-146.7-75.6-282.9
		C369,146.9,368.2,201.3,368.2,201.3z"/>
	
		<radialGradient id="SVGID_6_" cx="424.3739" cy="335.4774" r="114.0346" gradientTransform="matrix(1 0 0 1.9368 0 -314.2863)" gradientUnits="userSpaceOnUse">
		<stop  offset="0.4297" style="stop-color:#000000;stop-opacity:0"/>
		<stop  offset="1" style="stop-color:#000000;stop-opacity:0.9651"/>
	</radialGradient>
	<path class="st7" d="M368.2,201.3c0,0,71.6,201.4,29.8,251.7s64.2,14.3,64.2,14.3s-11.9-146.7-75.6-282.9
		C369,146.9,368.2,201.3,368.2,201.3z"/>
	<path id="sand-low" class="st8" d="M201.2,502.3c8.3-7.5,117-26,142-52c12.3-12.8,61-15,71-10s70,31,84,30c14-1,94,0,104,7
		s67.7,30.6,51.1,39c-26.9,13.5-102.6,23-185.1,22c-29.6-0.3-124.6-0.4-143,0C278.2,539.3,181.9,519.6,201.2,502.3z"/>
	<path id="sand-high" class="st8" d="M217.8,496.2c8.3-7.5,100.4-19.9,125.4-45.9c12.3-12.8,61-15,71-10s70,31,84,30
		c14-1,94,0,104,7s51.6,21.3,35,29.7c-26.9,13.5-87.4,16.4-169.9,15.4c-29.6-0.3-117.5,0.9-136,1.3
		C284.3,524.7,198.5,513.6,217.8,496.2z"/>
	<radialGradient id="SVGID_7_" cx="364.8883" cy="167.3802" r="66.524" gradientUnits="userSpaceOnUse">
		<stop  offset="0" style="stop-color:#000000;stop-opacity:0.3"/>
		<stop  offset="1" style="stop-color:#000000;stop-opacity:0.1"/>
	</radialGradient>
	<path class="st9" d="M362.7,184.3c0,0,12.4,35.3,19.8,61.7c-6.4-20.9,13.7-51.5,21.8-20.5c-12.8-36.3-23.5-51.2-23.5-51.2l-6.3-3.1
		L362.7,184.3z"/>
</g>
<g id="Layer_3">
	<path class="st10" d="M334.4,382.7c2.5,3.8,15.6,9.6,24,9.2c-3,8.5-16,31.6-16,31.6s-16.8-0.8-15.9-3
		C327.4,418.3,334.4,382.7,334.4,382.7z"/>
	<g>
		
			<linearGradient id="SVGID_8_" gradientUnits="userSpaceOnUse" x1="349.6084" y1="381.9113" x2="345.0931" y2="390.4287" gradientTransform="matrix(0.995 -9.951303e-02 9.951303e-02 0.995 -37.4218 36.7086)">
			<stop  offset="0.2572" style="stop-color:#FFFFFF"/>
			<stop  offset="0.4729" style="stop-color:#FFFFFF"/>
		</linearGradient>
		<path class="st11" d="M335.2,378.7c1.5-1.3,20.4,4.4,24.4,9.3c2.3,2.9-1.2,3.9-1.2,3.9s-15.6,0.1-24-9.2
			C332.5,380.6,335.2,378.7,335.2,378.7z"/>
	</g>
</g>
<g id="Layer_2">
	<g class="st12">
		<path d="M268.5,480.2c0,0,28.3,6.4,30.2,12.7c1.9,6.3-1.2,17.3-1.2,17.3s9.1-6.4,18.3-14c13.5-11.2,31.7-13.2,60.3-11.7
			c14.2,0.7,61-0.7,66.8-11.4c5.8-10.8,7.4-16.1,11.5-15.6c-4.5-1.9-8.5-3.4-12.3-4.9c2.5-8.3,3.7-30.6,1.7-37.9
			c-1.9-7.4-24.1-33-21-44.4c3.1-11.3,10.5-17.1,5.2-24.4c-5.3-7.3-12.3-18.7-22.9-12.5c-10.6,6.2-3.1,60,2,74.5s-2.4,55.4-16,54
			c-13.5-1.4-39.2-11.7-50-11.1C339.2,458.2,298.7,473.1,268.5,480.2z"/>
	</g>
	<g>
		
			<radialGradient id="SVGID_9_" cx="385.4611" cy="395.4351" r="40.9743" gradientTransform="matrix(0.9976 6.855758e-02 -0.102 1.484 41.2322 -217.8025)" gradientUnits="userSpaceOnUse">
			<stop  offset="0" style="stop-color:#8C8C8C"/>
			<stop  offset="7.781279e-02" style="stop-color:#989898"/>
			<stop  offset="0.337" style="stop-color:#BABABA"/>
			<stop  offset="0.5838" style="stop-color:#D2D2D2"/>
			<stop  offset="0.811" style="stop-color:#E0E0E0"/>
			<stop  offset="1" style="stop-color:#E6E6E6"/>
		</radialGradient>
		<path class="st13" d="M318.3,434.1c-3.3-1.2-1.7-6,8.3-15s47.1,1.5,54.1-8.5s11.4-32.5,20.9-34.5s21-2,27.6,17.8
			c6.4,19.1,5.4,26.8,3.4,40.8c-1.9,13.5-6.1,28.8-25,36.4C332.6,501.1,344.2,443.2,318.3,434.1z"/>
	</g>
	<g>
		<radialGradient id="SVGID_10_" cx="318.952" cy="466.6661" r="31.7459" gradientUnits="userSpaceOnUse">
			<stop  offset="0" style="stop-color:#000000"/>
			<stop  offset="1" style="stop-color:#000000;stop-opacity:0"/>
		</radialGradient>
		<path class="st14" d="M318.3,434.1c-3.3-1.2-1.7-6,8.3-15s47.1,1.5,54.1-8.5s11.4-32.5,20.9-34.5s19.9-1.6,27.6,17.8
			c7.6,19.2,6.6,26.7,5,41.6c-1.4,13.5-7.7,28.1-26.6,35.6C332.6,501.1,344.2,443.2,318.3,434.1z"/>
	</g>
	<linearGradient id="SVGID_11_" gradientUnits="userSpaceOnUse" x1="413.9214" y1="410.8347" x2="408.1228" y2="396.8214">
		<stop  offset="0" style="stop-color:#0C1930;stop-opacity:0.2"/>
		<stop  offset="1" style="stop-color:#0C1930;stop-opacity:0"/>
	</linearGradient>
	<path class="st15" d="M405.8,415.4c0,0,16.8-4.9,16.4-5.6c-0.3-0.7-1.2-15.9-1.2-15.9l-10.2-4.4c0,0-17.2,5.1-17.2,5.5
		c0,0.4,5.8,14.8,5.8,14.8L405.8,415.4z"/>
	<linearGradient id="SVGID_12_" gradientUnits="userSpaceOnUse" x1="305.9659" y1="472.1817" x2="297.0264" y2="447.2958">
		<stop  offset="9.176295e-03" style="stop-color:#A6A6A6"/>
		<stop  offset="0.2573" style="stop-color:#AAAAAA"/>
		<stop  offset="0.5059" style="stop-color:#B6B6B6"/>
		<stop  offset="0.7538" style="stop-color:#CACACA"/>
		<stop  offset="1" style="stop-color:#E6E6E6"/>
	</linearGradient>
	<path class="st16" d="M268.5,480.2c0,0,2.3,3.1,15.3-1.9c16.9-6.5,17.3-7.5,17.3-7.5c-9-20-0.3-41.6,13.7-37.5c20,6,15.3-16,7-20
		c-23-11-36,13-38,41C283.1,464.2,274.2,463.9,268.5,480.2z"/>
	<linearGradient id="SVGID_13_" gradientUnits="userSpaceOnUse" x1="312.3161" y1="558.2789" x2="336.708" y2="446.9692">
		<stop  offset="0" style="stop-color:#000000"/>
		<stop  offset="2.339333e-02" style="stop-color:#161616"/>
		<stop  offset="7.545209e-02" style="stop-color:#414141"/>
		<stop  offset="0.1332" style="stop-color:#696969"/>
		<stop  offset="0.1953" style="stop-color:#8A8A8A"/>
		<stop  offset="0.2633" style="stop-color:#A7A7A7"/>
		<stop  offset="0.3389" style="stop-color:#BEBEBE"/>
		<stop  offset="0.4256" style="stop-color:#D0D0D0"/>
		<stop  offset="0.53" style="stop-color:#DCDCDC"/>
		<stop  offset="0.6704" style="stop-color:#E3E3E3"/>
		<stop  offset="1" style="stop-color:#E6E6E6"/>
	</linearGradient>
	<path class="st17" d="M371.6,479.6c0,0-42,4.5-60.1,16.6c-9.4,6.3-14,14-14,14s-9,6-14-3c-5.9-10.6-10-24.2-8-31c2-6.8,18,9,18,9
		c16-11.7,33-20.9,50.7-28.1c2.4-1,10.5-5,9.5-13C369.2,429.9,410,467.3,371.6,479.6z"/>
	<g class="st18">
		<path d="M301.6,413.1c4.5-0.2,22.8,12.9,16.8,21c4,3.7,10.6,3.7,20.7,25.1c23.6-10,5.8-31.6,41.8-37.4c5.4-0.9,15.8-1.9,21.4-1
			c11.6,1.9,25.2,43.3-6.1,54.3c44.4-8.1,38.8-60.7,35.9-71.6c-1.3-5.1-4.7-21.1-14.6-26.3c-10.6-5.6-22.9,1.2-26.7,11.7
			c16.7,5.7,26-11,33.7-3.9c6.5,6-3.9,28.3-3.9,28.3l-44.6,2.4c0,0-63.7-9.9-64.4-10.1C311,405.5,301.6,413.1,301.6,413.1z"/>
	</g>
	<polygon class="st19" points="286.2,406.8 286.2,398.3 339.9,398.3 396.2,413.1 396.2,418.8 344.2,430.8 	"/>
	<polygon class="st20" points="271.8,398.3 248.2,344.8 250.2,337.8 328.2,353.8 344.2,420.8 341.2,424.8 	"/>
	<path class="st21" d="M417.2,391.3c-0.8,3.1,4.1,22.2-10,16.5c-14.1-5.7-31-19.5-40-17.5c-10.5,2.3-20.9,9.7-13,14
		c4.3,2.3,13-6.9,15-3c0.5,0.9,1.6,5.3,4,6c9.7,2.8,23.8,5.4,23,5.8v5.8l-8.3,1.9c0,0,9.9,3.2,24.3,1.6c17-2,18-19.7,18-19.7
		C430.2,386,418.2,382.3,417.2,391.3z"/>
	<path class="st22" d="M358.2,328.3l-5.3,35.2c4,1.8,12.1,1.7,14.3,0.8c2.5-1,1,15,8,18s16.6-5.5,23.5-11.5c6.9-6,11,0,18.5-28.5
		c0-16.2-14-46-41-37C359.6,310.8,358.2,328.3,358.2,328.3z"/>
	<g>
		<path d="M405.2,333.3c-0.4,2.2-0.5-4.1,5.5-3.5c6,0.6,7,9,3,15c-2,2.9-6.5-0.5-6.5-0.5s0.1,3.4,0,5c-1.3,20-15.4,6.8-32,13
			c13,4,15,13,7,17c-7,3.5-11.6,1.4-10.3-16.3c-2.2,0.6-4.1,1.2-4.7,1.3c1,8,0.2,13.5,1,18c0.9,5.4,5.3,8,9,7c3.7-1,7.4,0.2,13-4
			c5.6-4.2,6.2-2,12.1-6c5.9-4,8.9-2,10.9-5s4-3.5,4-10c0-6.5-5-12.4,0-14.4c3.4-1.4,7.3-12.1,5-15.6c-2.3-3.5,1.1-6.6-1-12
			c-2.1-5.4,3-6-2-10s-1-4-11-6s-4-3-9-7s-5-2-11-2c-3-4-10-4-14,3c-3-8-15-1-13,7c-9-2-7.7,6.8-7.7,6.8c-6,1-8.7,7.6-2.3,12.2
			c5.8,4.2,10,1,11.9-3.5c5.1,3.5,8.1-0.5,11.1-3.5c4.5,2.5,7,2,10,0c4,5,6.5,4.5,10,3c4.5-2.5,2.5,5.5,6.5,5.5c3,6,0.5,7.5,2.5,7.5
			S405.2,333.3,405.2,333.3z"/>
	</g>
	<g>
		<g>
			<circle cx="376.1" cy="339.9" r="4.6"/>
		</g>
		<g>
			<circle cx="366" cy="342.5" r="3.3"/>
		</g>
	</g>
	<linearGradient id="SVGID_14_" gradientUnits="userSpaceOnUse" x1="368.1732" y1="371.0452" x2="373.3482" y2="371.0452">
		<stop  offset="0" style="stop-color:#0C1930;stop-opacity:0.5"/>
		<stop  offset="1" style="stop-color:#0C1930;stop-opacity:0"/>
	</linearGradient>
	<polygon class="st23" points="373.3,379.5 368.2,375.5 368.2,364 373.3,362.6 	"/>
	<linearGradient id="SVGID_15_" gradientUnits="userSpaceOnUse" x1="367.1732" y1="370.8036" x2="374.0732" y2="370.8036">
		<stop  offset="0" style="stop-color:#0C1930;stop-opacity:0.5"/>
		<stop  offset="1" style="stop-color:#0C1930;stop-opacity:0"/>
	</linearGradient>
	<polygon class="st24" points="374.1,379.3 367.8,375.3 367.2,364.3 374,362.3 	"/>
	
		<linearGradient id="SVGID_16_" gradientUnits="userSpaceOnUse" x1="348.5841" y1="376.5913" x2="374.2552" y2="376.5913" gradientTransform="matrix(0.995 -9.951303e-02 9.951303e-02 0.995 -37.4218 36.7086)">
		<stop  offset="0" style="stop-color:#D4D4D4"/>
		<stop  offset="3.826393e-02" style="stop-color:#EAEAEA"/>
		<stop  offset="7.645089e-02" style="stop-color:#FCFCFC"/>
		<stop  offset="0.1688" style="stop-color:#FDFDFD"/>
		<stop  offset="0.3623" style="stop-color:#FFFFFF"/>
		<stop  offset="0.5371" style="stop-color:#FCFCFC"/>
		<stop  offset="0.6478" style="stop-color:#F4F4F4"/>
		<stop  offset="0.7407" style="stop-color:#E5E5E5"/>
		<stop  offset="0.8237" style="stop-color:#D0D0D0"/>
		<stop  offset="0.9002" style="stop-color:#B5B5B5"/>
		<stop  offset="0.9708" style="stop-color:#959595"/>
		<stop  offset="1" style="stop-color:#858585"/>
	</linearGradient>
	<path class="st25" d="M347.5,382.2c0.2,1.1,1.2,1.2,2.6,0.9c0,0,2.7-7.6,2.9-8c1.6-3.7,3.8-3.7,5-3.7c1.2,0.1,13.2,0.3,13.4-0.3
		c0.2-0.6,0.7-1.4,0.7-1.4l-12.1-0.8c0,0-6.7-1.3-9,5.7C349.1,380.1,347.5,382.2,347.5,382.2z"/>
	<path class="st22" d="M374.1,365.1c0,0,0,2.4-1.6,2c-1.6-0.4-3.8-1.8-3.2,0.3c0.6,2.2,2.6,2.9,1,3.2c-0.9,0.2-2.6,3.3-0.4,2.9
		c2.3-0.3,2.2-2.1,2.4,0.3c0.4,3.8,5.3,6.1,5.3,6.1s1-11.3,1.1-12.1C378.8,367.1,374.1,365.1,374.1,365.1z"/>
	<path class="st26" d="M358.2,328.3l-0.2,1.6c0,0,4.7,0,5.9-2.9c3.3,0.4,8.8-1.1,10.3-4.2c1.9,1.5,8,3.1,8.8-1
		c1.9,2.5,7.8,4.4,10.7,3.6c1.1-0.3,2.2,0,2.9,0.9c1.6,2,4,3.8,4.2,1.4c0.4-3.2,0.8-12.8-0.6-13.7c-1.5-1-20.7,2-20.7,2l-21,4.9
		L358.2,328.3z"/>
	<path class="st27" d="M406.3,339.2c0.1,0.8,0-2.8,0.6-4.3c0.1-0.3,0.3-0.6,0.5-0.9c1.1-1.4,2.1-2.7,3.9-2c1.8,0.8,3.3,1.6,3.3,3.6
		c0,2-0.7,4.2-0.7,4.7s0-1.8-1-2.1s-2.5,0.8-2.5,0.8c-1.2,1.7-1.6-2.9-1.6-2.9s-1-0.7-1.7,0.1C406.3,337.3,406.3,338.4,406.3,339.2z
		"/>
</g>
<g id="Layer_4">
	
		<radialGradient id="SVGID_17_" cx="354.317" cy="154.9592" r="60.8" gradientTransform="matrix(0.6775 -0.7355 0.7355 0.6775 -10.3074 323.8575)" gradientUnits="userSpaceOnUse">
		<stop  offset="0" style="stop-color:#5A7A44"/>
		<stop  offset="0.5592" style="stop-color:#989C63"/>
		<stop  offset="0.8478" style="stop-color:#A9AD6E"/>
	</radialGradient>
	<path class="st28" d="M363.7,127.1l8.9,12.1l-11.4-2.7l10.3,6.9l-0.9,11.9l-12.9-7.4l12.1,11.2c0,0,3.3,9.6,1.9,8.3
		c-1.4-1.3-5.3,0.8-5.3,0.8l12.7,13.8l-5.3,5.7L360.6,169l-2.1,4.6l-7.6-10.9l-1.2,7.5l-13.9-9.6l0.7-9.8l8.8-18.6L363.7,127.1z"/>
	<radialGradient id="SVGID_18_" cx="315.3679" cy="210.451" r="129.1068" gradientUnits="userSpaceOnUse">
		<stop  offset="0" style="stop-color:#436332"/>
		<stop  offset="1.393156e-02" style="stop-color:#476735"/>
		<stop  offset="0.1112" style="stop-color:#5F7E45"/>
		<stop  offset="0.2146" style="stop-color:#708E51"/>
		<stop  offset="0.3274" style="stop-color:#7A9858"/>
		<stop  offset="0.467" style="stop-color:#7D9B5A"/>
		<stop  offset="0.6887" style="stop-color:#86A460"/>
		<stop  offset="0.8478" style="stop-color:#8FAD66"/>
	</radialGradient>
	<path class="st29" d="M341.5,172.6c0,0-92.9-55.1-167.5,44.1c-7.9,10.5-21.7,37.8-32.2,52.1c14.4-3.3,36.6-21.8,36.6-21.8
		l-3.6-16.5l15.2,7.8l30.6-21.3l-14.2-18.4l21.9,11.9l30.1-12.7l3.3-20.9l17.3,19.4l22.6,1.5l4.6-23.8l10.6,21.4l19.9,5.1l4.8-15.5
		c0,0,26,19.3,26,16.4c0-2.9-6.9-18.4-6.9-18.4L341.5,172.6z"/>
	<radialGradient id="SVGID_19_" cx="400.1826" cy="199.2726" r="88.2836" gradientUnits="userSpaceOnUse">
		<stop  offset="0" style="stop-color:#436332"/>
		<stop  offset="0.8478" style="stop-color:#8FAD66"/>
	</radialGradient>
	<path class="st30" d="M386.6,184.4c0,0,2.6-19.5,17.8-19.5c10.3,0,10.9,19.5,10.9,19.5l19.7,9.7l12.5-36.7v40.6l22.3,19.3
		l12.7-34.8l-4,40.6l16.5,24.2l22.1-24.2l-14.5,35.8c0,0,5.8,4.8,5.8,20.3c0,15.5,20.3-22.2,20.3-22.2s-11.6,43.5-12.6,45.4
		c-1,1.9-4.8,27.6-4.8,27.6s34.6-39.2,32.4-59.5c-12.1-112.1-100.4-129.5-100.4-129.5c-65.3,0-62.7,30.9-62.7,30.9L386.6,184.4z"/>
	<radialGradient id="SVGID_20_" cx="369.3665" cy="163.1758" r="67.8128" gradientUnits="userSpaceOnUse">
		<stop  offset="0" style="stop-color:#436332"/>
		<stop  offset="0.8478" style="stop-color:#8FAD66"/>
	</radialGradient>
	<path class="st31" d="M361.4,172.7c0,0-21-37.2-37.8-42.1c-16.8-4.8-51.8,2.8-63.5,18.1c-14.8,19.3-22.2,55-24.8,78.5
		s-1.6,39.3-1.6,39.3l11.3-20.3l-2.9-15.5c0,0,9.8,1.5,10.6,1c2.6-1.8,9.3-13.5,9.3-13.5l-10-14.8l18.3,1.2c0,0,7.2-21,7.8-22.4
		c0.6-1.4-9.7-12.6-9.7-12.6l21,2.6l13.8-12.6l-8.7-13.5l13.2,12.9l17.1,1.6c0,0,3.2-12.6,2.3-11.6c-1,1,1.6,11.9,1.6,11.9l10.6,2.9
		c0,0,4.6-5.8,4.7-4.8s8.7,14.6,8.7,14.6l9.8,13.5l4.8,3.5L361.4,172.7z"/>
	
		<radialGradient id="SVGID_21_" cx="348.8748" cy="146.5387" r="55.7631" gradientTransform="matrix(0.6714 -0.7411 0.4326 0.3919 51.2521 347.6663)" gradientUnits="userSpaceOnUse">
		<stop  offset="0" style="stop-color:#436332"/>
		<stop  offset="0.8478" style="stop-color:#8FAD66"/>
	</radialGradient>
	<path class="st32" d="M299.4,271.4c-1-1.9,30.9-27.5,30.9-27.5l-5.8-15.5l11.6,9.2l18.8-20.8l-7.4-17.4l10.9,11.1l14.9-5.3
		l-4.5-9.9l7.2,5.6l2.7-10.6l-2.7-7.7l-7.9-10.1c0,0-11.1-20.3-25.7-13.6s-23.3,30-23.3,30l7.3-7.2l-9.7,14l-8.2,16.9l9.7-6
		l-16.6,19l-5.4,9.9l11.4-9l-15,18.4l-2.4,11.6l6-7.2c0,0-4.1,9-7.3,16.2c-1.1,2.4-2,4.5-2.7,6.1c-2.8,6.3-2.8,14.4-2.8,14.4
		l9.7-8.6l-0.5-6.8L299.4,271.4z"/>
	<path class="st33" d="M443.4,209.9c-0.6,41.9-8.7,30.1-8.7,30.1l-1.2,13l-4.3,14c0,0-7.6-10-5.9-8.5c1.8,1.5-2.8,11.5-2.8,11.5
		s-18.9,11.5-18.9,10s3.7-29.3,3.7-29.3l8.6-5.5l-6.5-3.5l5.6-24.8l13.2-8.9h-14.6l-5.7-22l19-13.2c0,0-21.9,0.7-21.9-0.8
		c0-1.5-6.8-7-6.8-7l-1-11l-14.6,14.3l-7,11l-5.3,0.5C368.2,179.8,445.4,63,443.4,209.9z"/>
	<path class="st33" d="M312.4,189.2l20.9-12.2l0-7.4l6.9,4l18.2-13l1.4-20.8l3.6,15.2l20.8-10.4l-1.4-17.4l8,17.9l15-8.2
		c0,0-7.2-24.1-24.1-35.3s-38.2,17.7-41.1,24.2s-8.3,15.4-8.3,15.4l9.1-5.9l-10.9,9.5l-4.6,10.5l4.5-3.9l-5.1,6l-5.6,10.6l3.7-2.2
		l-5.6,7L312.4,189.2z"/>
</g>
</svg>
